<svg xmlns="http://www.w3.org/2000/svg" width="594mm" height="420mm" viewBox="0 0 594 420" version="1.1">
<!-- garh-sheet sheet-site site-plan 1:100 -->
<title>A-01 Site Plan</title>
<rect x="0" y="0" width="594" height="420" fill="#ffffff" stroke="none"/>
<defs>
<clipPath id="hc-686754861f538694" clip-rule="evenodd">
<path d="M 172.405 189.950 L 237.955 189.950 L 237.955 102.550 L 172.405 102.550 Z"/>
</clipPath>
</defs>
<g id="g-frame">
<g class="layer" data-layer="A-TEXT" stroke="#111111" stroke-width="0.180" fill="none" stroke-linecap="butt" stroke-linejoin="miter">
<g font-family="Helvetica, Arial, sans-serif" fill="#111111" stroke="none">
<text x="407.000" y="359.000" font-size="5.000" text-anchor="start" dominant-baseline="alphabetic" font-weight="600">Site Plan</text>
<text x="564.000" y="356.000" font-size="5.000" text-anchor="middle" dominant-baseline="alphabetic" font-weight="600">A-01</text>
<text x="564.000" y="361.000" font-size="1.800" text-anchor="middle" dominant-baseline="alphabetic">SHEET</text>
<text x="406.000" y="365.000" font-size="1.800" text-anchor="start" dominant-baseline="hanging">PROJECT</text>
<text x="406.000" y="374.000" font-size="2.000" text-anchor="start" dominant-baseline="alphabetic">Bengaluru 30 × 50, G+2 3BHK</text>
<text x="406.000" y="376.000" font-size="1.800" text-anchor="start" dominant-baseline="hanging">CLIENT</text>
<text x="406.000" y="385.000" font-size="2.000" text-anchor="start" dominant-baseline="alphabetic"></text>
<text x="406.000" y="387.000" font-size="1.800" text-anchor="start" dominant-baseline="hanging">ARCHITECT</text>
<text x="406.000" y="396.000" font-size="2.000" text-anchor="start" dominant-baseline="alphabetic">Studio Demo</text>
<text x="406.000" y="398.000" font-size="1.800" text-anchor="start" dominant-baseline="hanging">SCALE</text>
<text x="406.000" y="407.000" font-size="2.000" text-anchor="start" dominant-baseline="alphabetic">1:100</text>
<text x="496.000" y="365.000" font-size="1.800" text-anchor="start" dominant-baseline="hanging">DATE</text>
<text x="496.000" y="374.000" font-size="2.000" text-anchor="start" dominant-baseline="alphabetic">01-01-2026</text>
<text x="496.000" y="376.000" font-size="1.800" text-anchor="start" dominant-baseline="hanging">DRAWN</text>
<text x="496.000" y="385.000" font-size="2.000" text-anchor="start" dominant-baseline="alphabetic"></text>
<text x="496.000" y="387.000" font-size="1.800" text-anchor="start" dominant-baseline="hanging">CHECKED</text>
<text x="496.000" y="396.000" font-size="2.000" text-anchor="start" dominant-baseline="alphabetic"></text>
<text x="496.000" y="398.000" font-size="1.800" text-anchor="start" dominant-baseline="hanging">REV</text>
<text x="496.000" y="407.000" font-size="2.000" text-anchor="start" dominant-baseline="alphabetic">A</text>
</g>
</g>
<g class="layer" data-layer="A-TITL" stroke="#000000" stroke-width="0.350" fill="none" stroke-linecap="butt" stroke-linejoin="miter">
<polygon points="2.000,2.000 592.000,2.000 592.000,418.000 2.000,418.000" fill="none"/>
<polygon points="20.000,10.000 584.000,10.000 584.000,410.000 20.000,410.000" fill="none"/>
<polygon points="404.000,350.000 584.000,350.000 584.000,410.000 404.000,410.000" fill="none"/>
<line x1="404.000" y1="364.000" x2="584.000" y2="364.000"/>
<line x1="544.000" y1="350.000" x2="544.000" y2="364.000"/>
<line x1="494.000" y1="364.000" x2="494.000" y2="410.000"/>
<line x1="404.000" y1="375.000" x2="494.000" y2="375.000"/>
<line x1="404.000" y1="386.000" x2="494.000" y2="386.000"/>
<line x1="404.000" y1="397.000" x2="494.000" y2="397.000"/>
<line x1="494.000" y1="375.000" x2="584.000" y2="375.000"/>
<line x1="494.000" y1="386.000" x2="584.000" y2="386.000"/>
<line x1="494.000" y1="397.000" x2="584.000" y2="397.000"/>
</g>
</g>
<g id="g-site">
<g class="layer" data-layer="A-WALL" stroke="#000000" stroke-width="0.500" fill="none" stroke-linecap="butt" stroke-linejoin="miter">
<polygon points="172.405,189.950 237.955,189.950 237.955,102.550 172.405,102.550" fill="none"/>
</g>
<g class="layer" data-layer="A-WALL-PART" stroke="#555555" stroke-width="0.250" fill="none" stroke-linecap="butt" stroke-linejoin="miter">
<polygon points="162.405,219.950 253.845,219.950 253.845,67.550 162.405,67.550" fill="none"/>
<polygon points="162.405,219.950 253.845,219.950 253.845,309.950 162.405,309.950" fill="none" stroke-dasharray="3.000 1.500"/>
</g>
<g class="layer" data-layer="A-DIM" stroke="#1a1a1a" stroke-width="0.130" fill="none" stroke-linecap="butt" stroke-linejoin="miter">
<line x1="185.265" y1="309.950" x2="185.265" y2="219.950"/>
<line x1="185.265" y1="309.950" x2="186.515" y2="309.950"/>
<line x1="185.265" y1="219.950" x2="186.515" y2="219.950"/>
<text x="186.265" y="264.950" font-size="2.000" text-anchor="middle" dominant-baseline="alphabetic" transform="rotate(-90 186.265 264.950)">9000</text>
<line x1="162.405" y1="324.950" x2="253.845" y2="324.950"/>
<line x1="162.405" y1="324.950" x2="162.405" y2="323.700"/>
<line x1="253.845" y1="324.950" x2="253.845" y2="323.700"/>
<text x="208.125" y="323.950" font-size="2.000" text-anchor="middle" dominant-baseline="alphabetic">9144</text>
<line x1="268.845" y1="219.950" x2="268.845" y2="67.550"/>
<line x1="268.845" y1="219.950" x2="270.095" y2="219.950"/>
<line x1="268.845" y1="67.550" x2="270.095" y2="67.550"/>
<text x="269.845" y="143.750" font-size="2.000" text-anchor="middle" dominant-baseline="alphabetic" transform="rotate(-90 269.845 143.750)">15240</text>
<line x1="162.405" y1="52.550" x2="253.845" y2="52.550"/>
<line x1="162.405" y1="52.550" x2="162.405" y2="51.300"/>
<line x1="253.845" y1="52.550" x2="253.845" y2="51.300"/>
<text x="208.125" y="51.550" font-size="2.000" text-anchor="middle" dominant-baseline="alphabetic">9144</text>
<line x1="147.405" y1="219.950" x2="147.405" y2="67.550"/>
<line x1="147.405" y1="219.950" x2="148.655" y2="219.950"/>
<line x1="147.405" y1="67.550" x2="148.655" y2="67.550"/>
<text x="148.405" y="143.750" font-size="2.000" text-anchor="middle" dominant-baseline="alphabetic" transform="rotate(-90 148.405 143.750)">15240</text>
<line x1="172.405" y1="96.300" x2="237.955" y2="96.300"/>
<line x1="172.405" y1="96.300" x2="172.405" y2="95.050"/>
<line x1="237.955" y1="96.300" x2="237.955" y2="95.050"/>
<text x="205.175" y="95.300" font-size="2.000" text-anchor="middle" dominant-baseline="alphabetic">6555</text>
<line x1="244.205" y1="189.950" x2="244.205" y2="102.550"/>
<line x1="244.205" y1="189.950" x2="245.455" y2="189.950"/>
<line x1="244.205" y1="102.550" x2="245.455" y2="102.550"/>
<text x="245.205" y="146.250" font-size="2.000" text-anchor="middle" dominant-baseline="alphabetic" transform="rotate(-90 245.205 146.250)">8740</text>
<line x1="188.785" y1="219.950" x2="188.785" y2="189.950"/>
<line x1="188.785" y1="219.950" x2="190.035" y2="219.950"/>
<line x1="188.785" y1="189.950" x2="190.035" y2="189.950"/>
<text x="189.785" y="204.950" font-size="2.000" text-anchor="middle" dominant-baseline="alphabetic" transform="rotate(-90 189.785 204.950)">3000</text>
<line x1="237.955" y1="168.100" x2="253.845" y2="168.100"/>
<line x1="237.955" y1="168.100" x2="237.955" y2="166.850"/>
<line x1="253.845" y1="168.100" x2="253.845" y2="166.850"/>
<text x="245.895" y="167.100" font-size="2.000" text-anchor="middle" dominant-baseline="alphabetic">1589</text>
<line x1="188.785" y1="102.550" x2="188.785" y2="67.550"/>
<line x1="188.785" y1="102.550" x2="190.035" y2="102.550"/>
<line x1="188.785" y1="67.550" x2="190.035" y2="67.550"/>
<text x="189.785" y="85.050" font-size="2.000" text-anchor="middle" dominant-baseline="alphabetic" transform="rotate(-90 189.785 85.050)">3500</text>
<line x1="162.405" y1="168.100" x2="172.405" y2="168.100"/>
<line x1="162.405" y1="168.100" x2="162.405" y2="166.850"/>
<line x1="172.405" y1="168.100" x2="172.405" y2="166.850"/>
<text x="167.405" y="167.100" font-size="2.000" text-anchor="middle" dominant-baseline="alphabetic">1000</text>
</g>
<g class="layer" data-layer="A-TEXT" stroke="#111111" stroke-width="0.180" fill="none" stroke-linecap="butt" stroke-linejoin="miter">
<polygon points="268.845,67.550 265.095,86.300 268.845,90.050 272.595,86.300" fill="none"/>
<g font-family="Helvetica, Arial, sans-serif" fill="#111111" stroke="none">
<text x="208.125" y="264.950" font-size="2.000" text-anchor="middle" dominant-baseline="central">9000 mm WIDE ROAD</text>
<text x="268.845" y="62.550" font-size="2.500" text-anchor="middle" dominant-baseline="central" font-weight="600">N</text>
</g>
</g>
<g class="layer" data-layer="A-AREA" stroke="#3a3a3a" stroke-width="0.130" fill="none" stroke-linecap="butt" stroke-linejoin="miter">
<g clip-path="url(#hc-686754861f538694)">
<path d="M 207.155 224.700 L 283.625 148.220 M 203.615 221.160 L 280.095 144.690 M 200.085 217.630 L 276.555 141.150 M 196.545 214.090 L 273.025 137.620 M 193.015 210.560 L 269.485 134.080 M 189.475 207.020 L 265.955 130.550 M 185.945 203.490 L 262.415 127.010 M 182.405 199.950 L 258.885 123.480 M 178.865 196.410 L 255.345 119.940 M 175.335 192.880 L 251.805 116.400 M 171.795 189.340 L 248.275 112.870 M 168.265 185.810 L 244.735 109.330 M 164.725 182.270 L 241.205 105.800 M 161.195 178.740 L 237.665 102.260 M 157.655 175.200 L 234.135 98.730 M 154.125 171.670 L 230.595 95.190 M 150.585 168.130 L 227.065 91.660 M 147.045 164.590 L 223.525 88.120 M 143.515 161.060 L 219.985 84.580 M 139.975 157.520 L 216.455 81.050 M 136.445 153.990 L 212.915 77.510 M 132.905 150.450 L 209.385 73.980 M 129.375 146.920 L 205.845 70.440 M 125.835 143.380 L 202.315 66.910" stroke="#3a3a3a" stroke-width="0.080" fill="none"/>
</g>
<g font-family="Helvetica, Arial, sans-serif" fill="#3a3a3a" stroke="none">
<text x="162.405" y="332.450" font-size="2.000" text-anchor="start" dominant-baseline="alphabetic">PLOT SIZE: 9144 x 15240 mm (30&apos;-0&quot; x 50&apos;-0&quot;)</text>
<text x="162.405" y="337.450" font-size="2.000" text-anchor="start" dominant-baseline="alphabetic">PLOT AREA: 139.35 m²</text>
<text x="162.405" y="342.450" font-size="2.000" text-anchor="start" dominant-baseline="alphabetic">GROUND COVERAGE: 57.29 m² (permissible 90.58 m²)</text>
<text x="162.405" y="347.450" font-size="2.000" text-anchor="start" dominant-baseline="alphabetic">FAR ACHIEVED: 1.04 (permissible 2.25)</text>
<text x="162.405" y="352.450" font-size="2.000" text-anchor="start" dominant-baseline="alphabetic">FRONT SETBACK: 3000 mm (required 3000 mm)</text>
<text x="162.405" y="357.450" font-size="2.000" text-anchor="start" dominant-baseline="alphabetic">SIDE A SETBACK: 1589 mm (required 1000 mm)</text>
<text x="162.405" y="362.450" font-size="2.000" text-anchor="start" dominant-baseline="alphabetic">REAR SETBACK: 3500 mm (required 1500 mm)</text>
<text x="162.405" y="367.450" font-size="2.000" text-anchor="start" dominant-baseline="alphabetic">SIDE B SETBACK: 1000 mm (required 1000 mm)</text>
</g>
</g>
</g>
<g id="g-site-label">
<g class="layer" data-layer="A-TEXT" stroke="#111111" stroke-width="0.180" fill="none" stroke-linecap="butt" stroke-linejoin="miter">
<g font-family="Helvetica, Arial, sans-serif" fill="#111111" stroke="none">
<text x="209.995" y="382.450" font-size="3.500" text-anchor="middle" dominant-baseline="hanging" font-weight="600">SITE PLAN - 1:100</text>
</g>
</g>
</g>
</svg>
