<svg xmlns="http://www.w3.org/2000/svg" width="594mm" height="420mm" viewBox="0 0 594 420" version="1.1">
<!-- garh-sheet sheet-elev-w elevation 1:100 -->
<title>A-03D West Elevation</title>
<rect x="0" y="0" width="594" height="420" fill="#ffffff" stroke="none"/>
<g id="g-frame">
<g class="layer" data-layer="A-TEXT" stroke="#111111" stroke-width="0.180" fill="none" stroke-linecap="butt" stroke-linejoin="miter">
<g font-family="Helvetica, Arial, sans-serif" fill="#111111" stroke="none">
<text x="407.000" y="359.000" font-size="5.000" text-anchor="start" dominant-baseline="alphabetic" font-weight="600">West Elevation</text>
<text x="564.000" y="356.000" font-size="5.000" text-anchor="middle" dominant-baseline="alphabetic" font-weight="600">A-03D</text>
<text x="564.000" y="361.000" font-size="1.800" text-anchor="middle" dominant-baseline="alphabetic">SHEET</text>
<text x="406.000" y="365.000" font-size="1.800" text-anchor="start" dominant-baseline="hanging">PROJECT</text>
<text x="406.000" y="374.000" font-size="2.000" text-anchor="start" dominant-baseline="alphabetic">Bengaluru 30 × 40, G+1 3BHK</text>
<text x="406.000" y="376.000" font-size="1.800" text-anchor="start" dominant-baseline="hanging">CLIENT</text>
<text x="406.000" y="385.000" font-size="2.000" text-anchor="start" dominant-baseline="alphabetic"></text>
<text x="406.000" y="387.000" font-size="1.800" text-anchor="start" dominant-baseline="hanging">ARCHITECT</text>
<text x="406.000" y="396.000" font-size="2.000" text-anchor="start" dominant-baseline="alphabetic">Studio Demo</text>
<text x="406.000" y="398.000" font-size="1.800" text-anchor="start" dominant-baseline="hanging">SCALE</text>
<text x="406.000" y="407.000" font-size="2.000" text-anchor="start" dominant-baseline="alphabetic">1:100</text>
<text x="496.000" y="365.000" font-size="1.800" text-anchor="start" dominant-baseline="hanging">DATE</text>
<text x="496.000" y="374.000" font-size="2.000" text-anchor="start" dominant-baseline="alphabetic">01-01-2026</text>
<text x="496.000" y="376.000" font-size="1.800" text-anchor="start" dominant-baseline="hanging">DRAWN</text>
<text x="496.000" y="385.000" font-size="2.000" text-anchor="start" dominant-baseline="alphabetic"></text>
<text x="496.000" y="387.000" font-size="1.800" text-anchor="start" dominant-baseline="hanging">CHECKED</text>
<text x="496.000" y="396.000" font-size="2.000" text-anchor="start" dominant-baseline="alphabetic"></text>
<text x="496.000" y="398.000" font-size="1.800" text-anchor="start" dominant-baseline="hanging">REV</text>
<text x="496.000" y="407.000" font-size="2.000" text-anchor="start" dominant-baseline="alphabetic">A</text>
</g>
</g>
<g class="layer" data-layer="A-TITL" stroke="#000000" stroke-width="0.350" fill="none" stroke-linecap="butt" stroke-linejoin="miter">
<polygon points="2.000,2.000 592.000,2.000 592.000,418.000 2.000,418.000" fill="none"/>
<polygon points="20.000,10.000 584.000,10.000 584.000,410.000 20.000,410.000" fill="none"/>
<polygon points="404.000,350.000 584.000,350.000 584.000,410.000 404.000,410.000" fill="none"/>
<line x1="404.000" y1="364.000" x2="584.000" y2="364.000"/>
<line x1="544.000" y1="350.000" x2="544.000" y2="364.000"/>
<line x1="494.000" y1="364.000" x2="494.000" y2="410.000"/>
<line x1="404.000" y1="375.000" x2="494.000" y2="375.000"/>
<line x1="404.000" y1="386.000" x2="494.000" y2="386.000"/>
<line x1="404.000" y1="397.000" x2="494.000" y2="397.000"/>
<line x1="494.000" y1="375.000" x2="584.000" y2="375.000"/>
<line x1="494.000" y1="386.000" x2="584.000" y2="386.000"/>
<line x1="494.000" y1="397.000" x2="584.000" y2="397.000"/>
</g>
</g>
<g id="g-elev-W">
<g class="layer" data-layer="A-WALL" stroke="#000000" stroke-width="0.500" fill="none" stroke-linecap="butt" stroke-linejoin="miter">
<polygon points="168.650,235.900 246.850,235.900 246.850,205.900 168.650,205.900" fill="none"/>
<polygon points="172.100,205.900 246.850,205.900 246.850,175.900 172.100,175.900" fill="none"/>
</g>
<g class="layer" data-layer="A-WALL-PART" stroke="#555555" stroke-width="0.250" fill="none" stroke-linecap="butt" stroke-linejoin="miter">
<line x1="172.100" y1="207.400" x2="246.850" y2="207.400"/>
<polygon points="168.650,241.900 246.850,241.900 246.850,235.900 168.650,235.900" fill="none"/>
<line x1="156.650" y1="241.900" x2="258.850" y2="241.900"/>
<line x1="200.100" y1="217.900" x2="208.270" y2="217.900"/>
<line x1="174.800" y1="196.900" x2="188.300" y2="196.900"/>
<polygon points="172.100,175.900 246.850,175.900 246.850,165.900 172.100,165.900" fill="none"/>
</g>
<g class="layer" data-layer="A-WIND" stroke="#1a1a1a" stroke-width="0.250" fill="none" stroke-linecap="butt" stroke-linejoin="miter">
<polygon points="200.850,217.900 207.520,217.900 207.520,213.400 200.850,213.400" fill="none"/>
<polygon points="201.450,217.300 206.920,217.300 206.920,214.000 201.450,214.000" fill="none"/>
<line x1="201.450" y1="215.650" x2="206.920" y2="215.650"/>
<polygon points="175.550,196.900 187.550,196.900 187.550,184.900 175.550,184.900" fill="none"/>
<polygon points="176.150,196.300 186.950,196.300 186.950,185.500 176.150,185.500" fill="none"/>
</g>
<g class="layer" data-layer="A-DIM" stroke="#1a1a1a" stroke-width="0.130" fill="none" stroke-linecap="butt" stroke-linejoin="miter">
<line x1="150.650" y1="241.900" x2="168.650" y2="241.900"/>
<polygon points="153.650,241.900 150.650,238.900 150.650,244.900" fill="none"/>
<line x1="150.650" y1="235.900" x2="168.650" y2="235.900"/>
<polygon points="153.650,235.900 150.650,232.900 150.650,238.900" fill="none"/>
<line x1="150.650" y1="226.900" x2="168.650" y2="226.900"/>
<polygon points="153.650,226.900 150.650,223.900 150.650,229.900" fill="none"/>
<line x1="150.650" y1="214.900" x2="168.650" y2="214.900"/>
<polygon points="153.650,214.900 150.650,211.900 150.650,217.900" fill="none"/>
<line x1="150.650" y1="205.900" x2="168.650" y2="205.900"/>
<polygon points="153.650,205.900 150.650,202.900 150.650,208.900" fill="none"/>
<line x1="150.650" y1="196.900" x2="168.650" y2="196.900"/>
<polygon points="153.650,196.900 150.650,193.900 150.650,199.900" fill="none"/>
<line x1="150.650" y1="184.900" x2="168.650" y2="184.900"/>
<polygon points="153.650,184.900 150.650,181.900 150.650,187.900" fill="none"/>
<line x1="150.650" y1="175.900" x2="168.650" y2="175.900"/>
<polygon points="153.650,175.900 150.650,172.900 150.650,178.900" fill="none"/>
<line x1="150.650" y1="165.900" x2="168.650" y2="165.900"/>
<polygon points="153.650,165.900 150.650,162.900 150.650,168.900" fill="none"/>
<line x1="270.850" y1="241.900" x2="270.850" y2="165.900"/>
<line x1="270.850" y1="241.900" x2="272.100" y2="241.900"/>
<line x1="270.850" y1="235.900" x2="272.100" y2="235.900"/>
<line x1="270.850" y1="205.900" x2="272.100" y2="205.900"/>
<line x1="270.850" y1="175.900" x2="272.100" y2="175.900"/>
<line x1="270.850" y1="165.900" x2="272.100" y2="165.900"/>
<text x="271.850" y="238.900" font-size="2.000" text-anchor="middle" dominant-baseline="alphabetic" transform="rotate(-90 271.850 238.900)">600</text>
<text x="271.850" y="220.900" font-size="2.000" text-anchor="middle" dominant-baseline="alphabetic" transform="rotate(-90 271.850 220.900)">3000</text>
<text x="271.850" y="190.900" font-size="2.000" text-anchor="middle" dominant-baseline="alphabetic" transform="rotate(-90 271.850 190.900)">3000</text>
<text x="271.850" y="170.900" font-size="2.000" text-anchor="middle" dominant-baseline="alphabetic" transform="rotate(-90 271.850 170.900)">1000</text>
</g>
<g class="layer" data-layer="A-TEXT" stroke="#111111" stroke-width="0.180" fill="none" stroke-linecap="butt" stroke-linejoin="miter">
<g font-family="Helvetica, Arial, sans-serif" fill="#111111" stroke="none">
<text x="149.150" y="241.900" font-size="2.500" text-anchor="end" dominant-baseline="central">±0 GROUND LVL (NGL)</text>
<text x="149.150" y="235.900" font-size="2.500" text-anchor="end" dominant-baseline="central">+600 GROUND FLOOR FFL / PLINTH LVL</text>
<text x="149.150" y="226.900" font-size="2.500" text-anchor="end" dominant-baseline="central">+1500 SILL GROUND FLOOR</text>
<text x="149.150" y="214.900" font-size="2.500" text-anchor="end" dominant-baseline="central">+2700 LINTEL GROUND FLOOR</text>
<text x="149.150" y="205.900" font-size="2.500" text-anchor="end" dominant-baseline="central">+3600 FIRST FLOOR FFL</text>
<text x="149.150" y="196.900" font-size="2.500" text-anchor="end" dominant-baseline="central">+4500 SILL FIRST FLOOR</text>
<text x="149.150" y="184.900" font-size="2.500" text-anchor="end" dominant-baseline="central">+5700 LINTEL FIRST FLOOR</text>
<text x="149.150" y="175.900" font-size="2.500" text-anchor="end" dominant-baseline="central">+6600 TERRACE LVL</text>
<text x="149.150" y="165.900" font-size="2.500" text-anchor="end" dominant-baseline="central">+7600 PARAPET TOP</text>
<text x="204.180" y="215.650" font-size="1.800" text-anchor="middle" dominant-baseline="central">V1</text>
<text x="181.550" y="190.900" font-size="1.800" text-anchor="middle" dominant-baseline="central">W2</text>
<text x="149.150" y="253.900" font-size="1.800" text-anchor="start" dominant-baseline="alphabetic" font-weight="600">NOTES</text>
<text x="149.150" y="257.100" font-size="1.800" text-anchor="start" dominant-baseline="alphabetic">1. No facade kit applied — no material callouts on this elevation.</text>
</g>
</g>
</g>
<g id="g-elev-W-label">
<g class="layer" data-layer="A-TEXT" stroke="#111111" stroke-width="0.180" fill="none" stroke-linecap="butt" stroke-linejoin="miter">
<g font-family="Helvetica, Arial, sans-serif" fill="#111111" stroke="none">
<text x="210.000" y="268.100" font-size="3.500" text-anchor="middle" dominant-baseline="hanging" font-weight="600">WEST ELEVATION - 1:100</text>
</g>
</g>
</g>
</svg>
