<svg xmlns="http://www.w3.org/2000/svg" width="594mm" height="420mm" viewBox="0 0 594 420" version="1.1">
<!-- garh-sheet sheet-site site-plan 1:100 -->
<title>A-01 Site Plan</title>
<rect x="0" y="0" width="594" height="420" fill="#ffffff" stroke="none"/>
<defs>
<clipPath id="hc-8750074cdf75c671" clip-rule="evenodd">
<path d="M 172.780 178.960 L 238.330 178.960 L 238.330 100.760 L 172.780 100.760 Z"/>
</clipPath>
</defs>
<g id="g-frame">
<g class="layer" data-layer="A-TEXT" stroke="#111111" stroke-width="0.180" fill="none" stroke-linecap="butt" stroke-linejoin="miter">
<g font-family="Helvetica, Arial, sans-serif" fill="#111111" stroke="none">
<text x="407.000" y="359.000" font-size="5.000" text-anchor="start" dominant-baseline="alphabetic" font-weight="600">Site Plan</text>
<text x="564.000" y="356.000" font-size="5.000" text-anchor="middle" dominant-baseline="alphabetic" font-weight="600">A-01</text>
<text x="564.000" y="361.000" font-size="1.800" text-anchor="middle" dominant-baseline="alphabetic">SHEET</text>
<text x="406.000" y="365.000" font-size="1.800" text-anchor="start" dominant-baseline="hanging">PROJECT</text>
<text x="406.000" y="374.000" font-size="2.000" text-anchor="start" dominant-baseline="alphabetic">Bengaluru 30 × 40, G+1 3BHK</text>
<text x="406.000" y="376.000" font-size="1.800" text-anchor="start" dominant-baseline="hanging">CLIENT</text>
<text x="406.000" y="385.000" font-size="2.000" text-anchor="start" dominant-baseline="alphabetic"></text>
<text x="406.000" y="387.000" font-size="1.800" text-anchor="start" dominant-baseline="hanging">ARCHITECT</text>
<text x="406.000" y="396.000" font-size="2.000" text-anchor="start" dominant-baseline="alphabetic">Studio Demo</text>
<text x="406.000" y="398.000" font-size="1.800" text-anchor="start" dominant-baseline="hanging">SCALE</text>
<text x="406.000" y="407.000" font-size="2.000" text-anchor="start" dominant-baseline="alphabetic">1:100</text>
<text x="496.000" y="365.000" font-size="1.800" text-anchor="start" dominant-baseline="hanging">DATE</text>
<text x="496.000" y="374.000" font-size="2.000" text-anchor="start" dominant-baseline="alphabetic">01-01-2026</text>
<text x="496.000" y="376.000" font-size="1.800" text-anchor="start" dominant-baseline="hanging">DRAWN</text>
<text x="496.000" y="385.000" font-size="2.000" text-anchor="start" dominant-baseline="alphabetic"></text>
<text x="496.000" y="387.000" font-size="1.800" text-anchor="start" dominant-baseline="hanging">CHECKED</text>
<text x="496.000" y="396.000" font-size="2.000" text-anchor="start" dominant-baseline="alphabetic"></text>
<text x="496.000" y="398.000" font-size="1.800" text-anchor="start" dominant-baseline="hanging">REV</text>
<text x="496.000" y="407.000" font-size="2.000" text-anchor="start" dominant-baseline="alphabetic">A</text>
</g>
</g>
<g class="layer" data-layer="A-TITL" stroke="#000000" stroke-width="0.350" fill="none" stroke-linecap="butt" stroke-linejoin="miter">
<polygon points="2.000,2.000 592.000,2.000 592.000,418.000 2.000,418.000" fill="none"/>
<polygon points="20.000,10.000 584.000,10.000 584.000,410.000 20.000,410.000" fill="none"/>
<polygon points="404.000,350.000 584.000,350.000 584.000,410.000 404.000,410.000" fill="none"/>
<line x1="404.000" y1="364.000" x2="584.000" y2="364.000"/>
<line x1="544.000" y1="350.000" x2="544.000" y2="364.000"/>
<line x1="494.000" y1="364.000" x2="494.000" y2="410.000"/>
<line x1="404.000" y1="375.000" x2="494.000" y2="375.000"/>
<line x1="404.000" y1="386.000" x2="494.000" y2="386.000"/>
<line x1="404.000" y1="397.000" x2="494.000" y2="397.000"/>
<line x1="494.000" y1="375.000" x2="584.000" y2="375.000"/>
<line x1="494.000" y1="386.000" x2="584.000" y2="386.000"/>
<line x1="494.000" y1="397.000" x2="584.000" y2="397.000"/>
</g>
</g>
<g id="g-site">
<g class="layer" data-layer="A-WALL" stroke="#000000" stroke-width="0.500" fill="none" stroke-linecap="butt" stroke-linejoin="miter">
<polygon points="172.780,178.960 238.330,178.960 238.330,100.760 172.780,100.760" fill="none"/>
</g>
<g class="layer" data-layer="A-WALL-PART" stroke="#555555" stroke-width="0.250" fill="none" stroke-linecap="butt" stroke-linejoin="miter">
<polygon points="162.780,208.960 254.220,208.960 254.220,87.040 162.780,87.040" fill="none"/>
<polygon points="162.780,208.960 254.220,208.960 254.220,298.960 162.780,298.960" fill="none" stroke-dasharray="3.000 1.500"/>
</g>
<g class="layer" data-layer="A-DIM" stroke="#1a1a1a" stroke-width="0.130" fill="none" stroke-linecap="butt" stroke-linejoin="miter">
<line x1="185.640" y1="298.960" x2="185.640" y2="208.960"/>
<line x1="185.640" y1="298.960" x2="186.890" y2="298.960"/>
<line x1="185.640" y1="208.960" x2="186.890" y2="208.960"/>
<text x="186.640" y="253.960" font-size="2.000" text-anchor="middle" dominant-baseline="alphabetic" transform="rotate(-90 186.640 253.960)">9000</text>
<line x1="162.780" y1="310.960" x2="254.220" y2="310.960"/>
<line x1="162.780" y1="310.960" x2="162.780" y2="309.710"/>
<line x1="254.220" y1="310.960" x2="254.220" y2="309.710"/>
<text x="208.500" y="309.960" font-size="2.000" text-anchor="middle" dominant-baseline="alphabetic">9144</text>
<line x1="266.220" y1="208.960" x2="266.220" y2="87.040"/>
<line x1="266.220" y1="208.960" x2="267.470" y2="208.960"/>
<line x1="266.220" y1="87.040" x2="267.470" y2="87.040"/>
<text x="267.220" y="148.000" font-size="2.000" text-anchor="middle" dominant-baseline="alphabetic" transform="rotate(-90 267.220 148.000)">12192</text>
<line x1="162.780" y1="75.040" x2="254.220" y2="75.040"/>
<line x1="162.780" y1="75.040" x2="162.780" y2="73.790"/>
<line x1="254.220" y1="75.040" x2="254.220" y2="73.790"/>
<text x="208.500" y="74.040" font-size="2.000" text-anchor="middle" dominant-baseline="alphabetic">9144</text>
<line x1="150.780" y1="208.960" x2="150.780" y2="87.040"/>
<line x1="150.780" y1="208.960" x2="152.030" y2="208.960"/>
<line x1="150.780" y1="87.040" x2="152.030" y2="87.040"/>
<text x="151.780" y="148.000" font-size="2.000" text-anchor="middle" dominant-baseline="alphabetic" transform="rotate(-90 151.780 148.000)">12192</text>
<line x1="172.780" y1="95.760" x2="238.330" y2="95.760"/>
<line x1="172.780" y1="95.760" x2="172.780" y2="94.510"/>
<line x1="238.330" y1="95.760" x2="238.330" y2="94.510"/>
<text x="205.550" y="94.760" font-size="2.000" text-anchor="middle" dominant-baseline="alphabetic">6555</text>
<line x1="243.330" y1="178.960" x2="243.330" y2="100.760"/>
<line x1="243.330" y1="178.960" x2="244.580" y2="178.960"/>
<line x1="243.330" y1="100.760" x2="244.580" y2="100.760"/>
<text x="244.330" y="139.860" font-size="2.000" text-anchor="middle" dominant-baseline="alphabetic" transform="rotate(-90 244.330 139.860)">7820</text>
<line x1="189.160" y1="208.960" x2="189.160" y2="178.960"/>
<line x1="189.160" y1="208.960" x2="190.410" y2="208.960"/>
<line x1="189.160" y1="178.960" x2="190.410" y2="178.960"/>
<text x="190.160" y="193.960" font-size="2.000" text-anchor="middle" dominant-baseline="alphabetic" transform="rotate(-90 190.160 193.960)">3000</text>
<line x1="238.330" y1="159.410" x2="254.220" y2="159.410"/>
<line x1="238.330" y1="159.410" x2="238.330" y2="158.160"/>
<line x1="254.220" y1="159.410" x2="254.220" y2="158.160"/>
<text x="246.270" y="158.410" font-size="2.000" text-anchor="middle" dominant-baseline="alphabetic">1589</text>
<line x1="189.160" y1="100.760" x2="189.160" y2="87.040"/>
<line x1="189.160" y1="100.760" x2="190.410" y2="100.760"/>
<line x1="189.160" y1="87.040" x2="190.410" y2="87.040"/>
<text x="190.160" y="93.900" font-size="2.000" text-anchor="middle" dominant-baseline="alphabetic" transform="rotate(-90 190.160 93.900)">1372</text>
<line x1="162.780" y1="159.410" x2="172.780" y2="159.410"/>
<line x1="162.780" y1="159.410" x2="162.780" y2="158.160"/>
<line x1="172.780" y1="159.410" x2="172.780" y2="158.160"/>
<text x="167.780" y="158.410" font-size="2.000" text-anchor="middle" dominant-baseline="alphabetic">1000</text>
</g>
<g class="layer" data-layer="A-TEXT" stroke="#111111" stroke-width="0.180" fill="none" stroke-linecap="butt" stroke-linejoin="miter">
<polygon points="266.220,87.040 263.220,102.040 266.220,105.040 269.220,102.040" fill="none"/>
<g font-family="Helvetica, Arial, sans-serif" fill="#111111" stroke="none">
<text x="208.500" y="253.960" font-size="2.000" text-anchor="middle" dominant-baseline="central">9000 mm WIDE ROAD</text>
<text x="266.220" y="83.040" font-size="2.500" text-anchor="middle" dominant-baseline="central" font-weight="600">N</text>
</g>
</g>
<g class="layer" data-layer="A-AREA" stroke="#3a3a3a" stroke-width="0.130" fill="none" stroke-linecap="butt" stroke-linejoin="miter">
<g clip-path="url(#hc-8750074cdf75c671)">
<path d="M 207.530 213.710 L 279.400 141.830 M 203.990 210.170 L 275.870 138.300 M 200.460 206.640 L 272.330 134.760 M 196.920 203.100 L 268.800 131.230 M 193.390 199.570 L 265.260 127.690 M 189.850 196.030 L 261.730 124.160 M 186.320 192.500 L 258.190 120.620 M 182.780 188.960 L 254.660 117.080 M 179.240 185.420 L 251.120 113.550 M 175.710 181.890 L 247.580 110.010 M 172.170 178.350 L 244.050 106.480 M 168.640 174.820 L 240.510 102.940 M 165.100 171.280 L 236.980 99.410 M 161.570 167.750 L 233.440 95.870 M 158.030 164.210 L 229.910 92.340 M 154.500 160.680 L 226.370 88.800 M 150.960 157.140 L 222.840 85.270 M 147.420 153.600 L 219.300 81.730 M 143.890 150.070 L 215.760 78.190 M 140.350 146.530 L 212.230 74.660 M 136.820 143.000 L 208.690 71.120 M 133.280 139.460 L 205.160 67.590" stroke="#3a3a3a" stroke-width="0.080" fill="none"/>
</g>
<g font-family="Helvetica, Arial, sans-serif" fill="#3a3a3a" stroke="none">
<text x="162.780" y="316.960" font-size="2.000" text-anchor="start" dominant-baseline="alphabetic">PLOT SIZE: 9144 x 12192 mm (30&apos;-0&quot; x 40&apos;-0&quot;)</text>
<text x="162.780" y="320.960" font-size="2.000" text-anchor="start" dominant-baseline="alphabetic">PLOT AREA: 111.48 m²</text>
<text x="162.780" y="324.960" font-size="2.000" text-anchor="start" dominant-baseline="alphabetic">GROUND COVERAGE: 51.26 m² (permissible 78.04 m²)</text>
<text x="162.780" y="328.960" font-size="2.000" text-anchor="start" dominant-baseline="alphabetic">FAR ACHIEVED: 0.90 (permissible 2.25)</text>
<text x="162.780" y="332.960" font-size="2.000" text-anchor="start" dominant-baseline="alphabetic">FRONT SETBACK: 3000 mm (required 3000 mm)</text>
<text x="162.780" y="336.960" font-size="2.000" text-anchor="start" dominant-baseline="alphabetic">SIDE A SETBACK: 1589 mm (required 1000 mm)</text>
<text x="162.780" y="340.960" font-size="2.000" text-anchor="start" dominant-baseline="alphabetic">REAR SETBACK: 1372 mm (required 1000 mm)</text>
<text x="162.780" y="344.960" font-size="2.000" text-anchor="start" dominant-baseline="alphabetic">SIDE B SETBACK: 1000 mm (required 1000 mm)</text>
</g>
</g>
</g>
<g id="g-site-label">
<g class="layer" data-layer="A-TEXT" stroke="#111111" stroke-width="0.180" fill="none" stroke-linecap="butt" stroke-linejoin="miter">
<g font-family="Helvetica, Arial, sans-serif" fill="#111111" stroke="none">
<text x="210.000" y="359.960" font-size="3.500" text-anchor="middle" dominant-baseline="hanging" font-weight="600">SITE PLAN - 1:100</text>
</g>
</g>
</g>
</svg>
