<svg xmlns="http://www.w3.org/2000/svg" width="594mm" height="420mm" viewBox="0 0 594 420" version="1.1">
<!-- garh-sheet sheet-elev-n elevation 1:100 -->
<title>A-03A North Elevation</title>
<rect x="0" y="0" width="594" height="420" fill="#ffffff" stroke="none"/>
<g id="g-frame">
<g class="layer" data-layer="A-TEXT" stroke="#111111" stroke-width="0.180" fill="none" stroke-linecap="butt" stroke-linejoin="miter">
<g font-family="Helvetica, Arial, sans-serif" fill="#111111" stroke="none">
<text x="407.000" y="359.000" font-size="5.000" text-anchor="start" dominant-baseline="alphabetic" font-weight="600">North Elevation</text>
<text x="564.000" y="356.000" font-size="5.000" text-anchor="middle" dominant-baseline="alphabetic" font-weight="600">A-03A</text>
<text x="564.000" y="361.000" font-size="1.800" text-anchor="middle" dominant-baseline="alphabetic">SHEET</text>
<text x="406.000" y="368.000" font-size="1.800" text-anchor="start" dominant-baseline="alphabetic">PROJECT  Sharma Residence</text>
<text x="406.000" y="373.000" font-size="1.800" text-anchor="start" dominant-baseline="alphabetic">CLIENT  R. Sharma</text>
<text x="406.000" y="378.000" font-size="1.800" text-anchor="start" dominant-baseline="alphabetic">ARCHITECT  Studio Demo</text>
<text x="406.000" y="383.000" font-size="1.800" text-anchor="start" dominant-baseline="alphabetic">SCALE  1:100</text>
<text x="496.000" y="368.000" font-size="1.800" text-anchor="start" dominant-baseline="alphabetic">DATE  01-01-2026</text>
<text x="496.000" y="373.000" font-size="1.800" text-anchor="start" dominant-baseline="alphabetic">DRAWN  AR</text>
<text x="496.000" y="378.000" font-size="1.800" text-anchor="start" dominant-baseline="alphabetic">CHECKED  HG</text>
<text x="496.000" y="383.000" font-size="1.800" text-anchor="start" dominant-baseline="alphabetic">REV  A</text>
<text x="406.000" y="391.000" font-size="1.800" text-anchor="start" dominant-baseline="alphabetic">Advisory only - not an approval.</text>
<text x="406.000" y="396.000" font-size="1.800" text-anchor="start" dominant-baseline="alphabetic" font-weight="600">REV</text>
<text x="416.000" y="396.000" font-size="1.800" text-anchor="start" dominant-baseline="alphabetic" font-weight="600">DATE</text>
<text x="440.000" y="396.000" font-size="1.800" text-anchor="start" dominant-baseline="alphabetic" font-weight="600">DESCRIPTION</text>
<text x="406.000" y="402.000" font-size="1.800" text-anchor="start" dominant-baseline="alphabetic">A</text>
<text x="416.000" y="402.000" font-size="1.800" text-anchor="start" dominant-baseline="alphabetic">01-01-2026</text>
<text x="440.000" y="402.000" font-size="1.800" text-anchor="start" dominant-baseline="alphabetic">First issue for approval</text>
<text x="406.000" y="408.000" font-size="1.800" text-anchor="start" dominant-baseline="alphabetic">B</text>
<text x="416.000" y="408.000" font-size="1.800" text-anchor="start" dominant-baseline="alphabetic">15-01-2026</text>
<text x="440.000" y="408.000" font-size="1.800" text-anchor="start" dominant-baseline="alphabetic">Kitchen window revised</text>
</g>
</g>
<g class="layer" data-layer="A-TITL" stroke="#000000" stroke-width="0.350" fill="none" stroke-linecap="butt" stroke-linejoin="miter">
<polygon points="2.000,2.000 592.000,2.000 592.000,418.000 2.000,418.000" fill="none"/>
<polygon points="20.000,10.000 584.000,10.000 584.000,410.000 20.000,410.000" fill="none"/>
<polygon points="404.000,350.000 584.000,350.000 584.000,410.000 404.000,410.000" fill="none"/>
<line x1="404.000" y1="364.000" x2="584.000" y2="364.000"/>
<line x1="544.000" y1="350.000" x2="544.000" y2="364.000"/>
<line x1="494.000" y1="364.000" x2="494.000" y2="387.000"/>
<line x1="404.000" y1="369.000" x2="494.000" y2="369.000"/>
<line x1="404.000" y1="374.000" x2="494.000" y2="374.000"/>
<line x1="404.000" y1="379.000" x2="494.000" y2="379.000"/>
<line x1="494.000" y1="369.000" x2="584.000" y2="369.000"/>
<line x1="494.000" y1="374.000" x2="584.000" y2="374.000"/>
<line x1="494.000" y1="379.000" x2="584.000" y2="379.000"/>
<line x1="404.000" y1="387.000" x2="584.000" y2="387.000"/>
<line x1="404.000" y1="392.000" x2="584.000" y2="392.000"/>
<line x1="414.000" y1="392.000" x2="414.000" y2="398.000"/>
<line x1="438.000" y1="392.000" x2="438.000" y2="398.000"/>
<line x1="404.000" y1="398.000" x2="584.000" y2="398.000"/>
<line x1="414.000" y1="398.000" x2="414.000" y2="404.000"/>
<line x1="438.000" y1="398.000" x2="438.000" y2="404.000"/>
<line x1="404.000" y1="404.000" x2="584.000" y2="404.000"/>
<line x1="414.000" y1="404.000" x2="414.000" y2="410.000"/>
<line x1="438.000" y1="404.000" x2="438.000" y2="410.000"/>
</g>
</g>
<g id="g-elev-N">
<g class="layer" data-layer="A-WALL" stroke="#000000" stroke-width="0.500" fill="none" stroke-linecap="butt" stroke-linejoin="miter">
<line x1="173.780" y1="248.600" x2="257.220" y2="248.600"/>
<polygon points="179.780,242.600 251.220,242.600 251.220,172.600 179.780,172.600" fill="none"/>
</g>
<g class="layer" data-layer="A-WALL-PART" stroke="#555555" stroke-width="0.250" fill="none" stroke-linecap="butt" stroke-linejoin="miter">
<polygon points="179.780,248.600 251.220,248.600 251.220,242.600 179.780,242.600" fill="none"/>
<line x1="179.780" y1="242.600" x2="251.220" y2="242.600" stroke-dasharray="1.500 1.000"/>
<line x1="179.780" y1="212.600" x2="251.220" y2="212.600" stroke-dasharray="1.500 1.000"/>
<line x1="179.780" y1="182.600" x2="251.220" y2="182.600"/>
</g>
<g class="layer" data-layer="A-WIND" stroke="#1a1a1a" stroke-width="0.250" fill="none" stroke-linecap="butt" stroke-linejoin="miter">
<polygon points="195.930,233.600 213.930,233.600 213.930,221.600 195.930,221.600" fill="none"/>
<line x1="195.930" y1="227.600" x2="213.930" y2="227.600"/>
<polygon points="235.930,224.600 241.930,224.600 241.930,220.100 235.930,220.100" fill="none"/>
<line x1="235.930" y1="222.350" x2="241.930" y2="222.350"/>
<polygon points="195.930,203.600 213.930,203.600 213.930,191.600 195.930,191.600" fill="none"/>
<line x1="195.930" y1="197.600" x2="213.930" y2="197.600"/>
<polygon points="235.930,194.600 241.930,194.600 241.930,190.100 235.930,190.100" fill="none"/>
<line x1="235.930" y1="192.350" x2="241.930" y2="192.350"/>
</g>
<g class="layer" data-layer="A-DIM" stroke="#1a1a1a" stroke-width="0.130" fill="none" stroke-linecap="butt" stroke-linejoin="miter">
<line x1="251.220" y1="248.600" x2="264.220" y2="248.600" stroke-dasharray="8.000 1.500 1.500 1.500"/>
<line x1="251.220" y1="242.600" x2="264.220" y2="242.600" stroke-dasharray="8.000 1.500 1.500 1.500"/>
<line x1="251.220" y1="221.600" x2="264.220" y2="221.600" stroke-dasharray="8.000 1.500 1.500 1.500"/>
<line x1="251.220" y1="212.600" x2="264.220" y2="212.600" stroke-dasharray="8.000 1.500 1.500 1.500"/>
<line x1="251.220" y1="191.600" x2="264.220" y2="191.600" stroke-dasharray="8.000 1.500 1.500 1.500"/>
<line x1="251.220" y1="182.600" x2="264.220" y2="182.600" stroke-dasharray="8.000 1.500 1.500 1.500"/>
<line x1="251.220" y1="172.600" x2="264.220" y2="172.600" stroke-dasharray="8.000 1.500 1.500 1.500"/>
<line x1="155.780" y1="248.600" x2="155.780" y2="172.600"/>
<line x1="155.780" y1="248.600" x2="157.030" y2="248.600"/>
<line x1="155.780" y1="242.600" x2="157.030" y2="242.600"/>
<line x1="155.780" y1="212.600" x2="157.030" y2="212.600"/>
<line x1="155.780" y1="182.600" x2="157.030" y2="182.600"/>
<line x1="155.780" y1="172.600" x2="157.030" y2="172.600"/>
<text x="156.780" y="245.600" font-size="2.000" text-anchor="middle" dominant-baseline="alphabetic" transform="rotate(-90 156.780 245.600)">600</text>
<text x="156.780" y="227.600" font-size="2.000" text-anchor="middle" dominant-baseline="alphabetic" transform="rotate(-90 156.780 227.600)">3000</text>
<text x="156.780" y="197.600" font-size="2.000" text-anchor="middle" dominant-baseline="alphabetic" transform="rotate(-90 156.780 197.600)">3000</text>
<text x="156.780" y="177.600" font-size="2.000" text-anchor="middle" dominant-baseline="alphabetic" transform="rotate(-90 156.780 177.600)">1000</text>
</g>
<g class="layer" data-layer="A-TEXT" stroke="#111111" stroke-width="0.180" fill="none" stroke-linecap="butt" stroke-linejoin="miter">
<g font-family="Helvetica, Arial, sans-serif" fill="#111111" stroke="none">
<text x="257.220" y="247.400" font-size="1.800" text-anchor="start" dominant-baseline="alphabetic">GL +0</text>
<text x="257.220" y="241.400" font-size="1.800" text-anchor="start" dominant-baseline="alphabetic">PLINTH +600</text>
<text x="257.220" y="220.400" font-size="1.800" text-anchor="start" dominant-baseline="alphabetic">LINTEL 0 +2700</text>
<text x="257.220" y="211.400" font-size="1.800" text-anchor="start" dominant-baseline="alphabetic">FFL 1 +3600</text>
<text x="257.220" y="190.400" font-size="1.800" text-anchor="start" dominant-baseline="alphabetic">LINTEL 1 +5700</text>
<text x="257.220" y="181.400" font-size="1.800" text-anchor="start" dominant-baseline="alphabetic">ROOF +6600</text>
<text x="257.220" y="171.400" font-size="1.800" text-anchor="start" dominant-baseline="alphabetic">PARAPET +7600</text>
</g>
</g>
</g>
<g id="g-elev-N-label">
<g class="layer" data-layer="A-TEXT" stroke="#111111" stroke-width="0.180" fill="none" stroke-linecap="butt" stroke-linejoin="miter">
<g font-family="Helvetica, Arial, sans-serif" fill="#111111" stroke="none">
<text x="210.000" y="259.600" font-size="3.500" text-anchor="middle" dominant-baseline="hanging" font-weight="600">NORTH ELEVATION - 1:100</text>
</g>
</g>
</g>
</svg>
